<?xml version="1.0" encoding="utf-8"?>
<!-- Generator: Adobe Illustrator 27.5.0, SVG Export Plug-In . SVG Version: 6.00 Build 0)  -->
<svg version="1.1" id="Layer_1" xmlns="http://www.w3.org/2000/svg" xmlns:xlink="http://www.w3.org/1999/xlink" x="0px" y="0px"
	 viewBox="0 0 1000 1000" style="enable-background:new 0 0 1000 1000;" xml:space="preserve">
<rect style="fill:#FFFFFF;" width="1000" height="1000"/>
<g>
	<g id="Layer_1-2_15_">
		
			<linearGradient id="SVGID_1_" gradientUnits="userSpaceOnUse" x1="263.2293" y1="562.5755" x2="681.896" y2="194.8421" gradientTransform="matrix(1 0 0 -1 0 1002)">
			<stop  offset="0" style="stop-color:#469AD9"/>
			<stop  offset="1" style="stop-color:#10DBDD"/>
		</linearGradient>
		<path style="fill:url(#SVGID_1_);" d="M793.333,649.191h-19.067v-72.8c0-3.682-2.985-6.667-6.667-6.667H579.467
			c-35.02-0.108-66.631,20.965-80,53.333c-13.247-32.168-44.545-53.208-79.333-53.333h-187.6c-3.682,0-6.667,2.985-6.667,6.667v72.8
			h-19.2c-3.682,0-6.667,2.985-6.667,6.667v40c0.071,3.652,3.015,6.596,6.667,6.667H490c3.634,0.034,7.167-1.191,10-3.467
			c2.904,2.239,6.466,3.457,10.133,3.467h283.2c3.682,0,6.667-2.985,6.667-6.667v-40C800,652.176,797.015,649.191,793.333,649.191z
			 M580,582.525h180.933v66.667H506.667c3.456-37.582,35.06-66.292,72.8-66.133L580,582.525z M239.733,582.525h180.933
			c37.774,0.073,69.218,29.026,72.4,66.667H239.733V582.525z M490.533,689.191h-277.2v-26.667h280v23.2
			c0.001,1.864-1.471,3.395-3.333,3.467H490.533z M787.2,689.191H510.133c-1.915,0-3.467-1.552-3.467-3.467l0,0v-23.2h280
			L787.2,689.191z"/>
		
			<linearGradient id="SVGID_00000001626243669550546310000000356322411858442679_" gradientUnits="userSpaceOnUse" x1="375.099" y1="689.9344" x2="793.7657" y2="322.3345" gradientTransform="matrix(1 0 0 -1 0 1002)">
			<stop  offset="0" style="stop-color:#469AD9"/>
			<stop  offset="1" style="stop-color:#10DBDD"/>
		</linearGradient>
		<path style="fill:url(#SVGID_00000001626243669550546310000000356322411858442679_);" d="M455.067,472.791v41.333
			c0.001,24.816,20.12,44.932,44.936,44.931c24.814-0.001,44.93-20.117,44.931-44.931v-40.933
			c5.632-14.511,12.132-28.67,19.467-42.4c10.034-15.975,16.788-33.788,19.867-52.4c-1.851-46.502-41.049-82.699-87.552-80.849
			c-43.907,1.748-79.101,36.941-80.849,80.849c3.079,18.612,9.833,36.425,19.867,52.4
			C443.023,444.387,449.479,458.413,455.067,472.791z M531.6,478.258v18.133h-63.2v-18.133H531.6z M531.6,514.125
			c-0.001,17.452-14.15,31.599-31.602,31.598c-17.45-0.001-31.596-14.147-31.598-31.598v-4.4h63.2V514.125z M500,307.591
			c39.123,0,70.86,31.677,70.933,70.8c-3.363,16.385-9.592,32.047-18.4,46.267c-6.933,13.01-13.207,26.36-18.8,40h-15.067l11.6-42
			c1.149-3.42-0.692-7.125-4.112-8.274c-0.139-0.047-0.279-0.089-0.421-0.126c-3.565-0.943-7.232,1.127-8.267,4.667L504.8,464.391
			h-9.6l-12.667-45.467c-0.957-3.682-4.718-5.891-8.4-4.933c-3.682,0.957-5.891,4.718-4.933,8.4l11.6,42h-14.133
			c-5.593-13.64-11.867-26.99-18.8-40c-8.808-14.219-15.037-29.882-18.4-46.267C429.613,339.231,461.106,307.737,500,307.591z"/>
	</g>
</g>
</svg>
